<svg width="208" height="49" viewBox="0 0 208 49" fill="none" xmlns="http://www.w3.org/2000/svg">
<rect width="208" height="48" transform="translate(0 0.5)" fill="#111111"/>
<path d="M76.8828 23.6875V28.0312C76.7214 28.2448 76.4688 28.4792 76.125 28.7344C75.7865 28.9844 75.3359 29.2005 74.7734 29.3828C74.2109 29.5651 73.5104 29.6562 72.6719 29.6562C71.9583 29.6562 71.3047 29.5365 70.7109 29.2969C70.1172 29.0521 69.6042 28.6953 69.1719 28.2266C68.7448 27.7578 68.4141 27.1875 68.1797 26.5156C67.9453 25.8385 67.8281 25.0677 67.8281 24.2031V23.4141C67.8281 22.5547 67.9349 21.7891 68.1484 21.1172C68.3672 20.4401 68.6797 19.8672 69.0859 19.3984C69.4922 18.9297 69.9818 18.5755 70.5547 18.3359C71.1328 18.0911 71.7865 17.9688 72.5156 17.9688C73.4479 17.9688 74.2188 18.125 74.8281 18.4375C75.4427 18.7448 75.9167 19.1719 76.25 19.7188C76.5833 20.2656 76.7943 20.8906 76.8828 21.5938H74.9609C74.8984 21.1979 74.776 20.8438 74.5938 20.5312C74.4167 20.2188 74.1615 19.974 73.8281 19.7969C73.5 19.6146 73.0729 19.5234 72.5469 19.5234C72.0938 19.5234 71.6953 19.6094 71.3516 19.7812C71.0078 19.9531 70.7214 20.2057 70.4922 20.5391C70.2682 20.8724 70.099 21.2786 69.9844 21.7578C69.8698 22.237 69.8125 22.7839 69.8125 23.3984V24.2031C69.8125 24.8281 69.8776 25.3828 70.0078 25.8672C70.1432 26.3516 70.3359 26.7604 70.5859 27.0938C70.8411 27.4271 71.151 27.6797 71.5156 27.8516C71.8802 28.0182 72.2917 28.1016 72.75 28.1016C73.1979 28.1016 73.5651 28.0651 73.8516 27.9922C74.138 27.9141 74.3646 27.8229 74.5312 27.7188C74.7031 27.6094 74.8359 27.5052 74.9297 27.4062V25.1484H72.5625V23.6875H76.8828ZM83.7328 27.8047V23.7734C83.7328 23.4714 83.6781 23.2109 83.5688 22.9922C83.4594 22.7734 83.2927 22.6042 83.0688 22.4844C82.85 22.3646 82.574 22.3047 82.2406 22.3047C81.9333 22.3047 81.6677 22.3568 81.4438 22.4609C81.2198 22.5651 81.0453 22.7057 80.9203 22.8828C80.7953 23.0599 80.7328 23.2604 80.7328 23.4844H78.8578C78.8578 23.151 78.9385 22.8281 79.1 22.5156C79.2615 22.2031 79.4958 21.9245 79.8031 21.6797C80.1104 21.4349 80.4776 21.2422 80.9047 21.1016C81.3318 20.9609 81.8109 20.8906 82.3422 20.8906C82.9776 20.8906 83.5401 20.9974 84.0297 21.2109C84.5245 21.4245 84.9125 21.7474 85.1938 22.1797C85.4802 22.6068 85.6234 23.1432 85.6234 23.7891V27.5469C85.6234 27.9323 85.6495 28.2786 85.7016 28.5859C85.7589 28.888 85.8396 29.151 85.9438 29.375V29.5H84.0141C83.9255 29.2969 83.8552 29.0391 83.8031 28.7266C83.7563 28.4089 83.7328 28.1016 83.7328 27.8047ZM84.0063 24.3594L84.0219 25.5234H82.6703C82.3214 25.5234 82.0141 25.5573 81.7484 25.625C81.4828 25.6875 81.2615 25.7812 81.0844 25.9062C80.9073 26.0312 80.7745 26.1823 80.6859 26.3594C80.5974 26.5365 80.5531 26.737 80.5531 26.9609C80.5531 27.1849 80.6052 27.3906 80.7094 27.5781C80.8135 27.7604 80.9646 27.9036 81.1625 28.0078C81.3656 28.112 81.6104 28.1641 81.8969 28.1641C82.2823 28.1641 82.6182 28.0859 82.9047 27.9297C83.1964 27.7682 83.4255 27.5729 83.5922 27.3438C83.7589 27.1094 83.8474 26.888 83.8578 26.6797L84.4672 27.5156C84.4047 27.7292 84.2979 27.9583 84.1469 28.2031C83.9958 28.4479 83.7979 28.6823 83.5531 28.9062C83.3135 29.125 83.0245 29.3047 82.6859 29.4453C82.3526 29.5859 81.9672 29.6562 81.5297 29.6562C80.9776 29.6562 80.4854 29.5469 80.0531 29.3281C79.6208 29.1042 79.2823 28.8047 79.0375 28.4297C78.7927 28.0495 78.6703 27.6198 78.6703 27.1406C78.6703 26.6927 78.7536 26.2969 78.9203 25.9531C79.0922 25.6042 79.3422 25.3125 79.6703 25.0781C80.0036 24.8438 80.4099 24.6667 80.8891 24.5469C81.3682 24.4219 81.9151 24.3594 82.5297 24.3594H84.0063ZM89.5828 22.6562V29.5H87.7V21.0469H89.4969L89.5828 22.6562ZM92.1688 20.9922L92.1531 22.7422C92.0385 22.7214 91.9135 22.7057 91.7781 22.6953C91.6479 22.6849 91.5177 22.6797 91.3875 22.6797C91.0646 22.6797 90.7807 22.7266 90.5359 22.8203C90.2911 22.9089 90.0854 23.0391 89.9188 23.2109C89.7573 23.3776 89.6323 23.5807 89.5438 23.8203C89.4552 24.0599 89.4031 24.3281 89.3875 24.625L88.9578 24.6562C88.9578 24.125 89.0099 23.6328 89.1141 23.1797C89.2182 22.7266 89.3745 22.3281 89.5828 21.9844C89.7964 21.6406 90.062 21.3724 90.3797 21.1797C90.7026 20.987 91.075 20.8906 91.4969 20.8906C91.6115 20.8906 91.7339 20.901 91.8641 20.9219C91.9995 20.9427 92.101 20.9661 92.1688 20.9922ZM97.9328 27.8047V23.7734C97.9328 23.4714 97.8781 23.2109 97.7687 22.9922C97.6594 22.7734 97.4927 22.6042 97.2687 22.4844C97.05 22.3646 96.774 22.3047 96.4406 22.3047C96.1333 22.3047 95.8677 22.3568 95.6437 22.4609C95.4198 22.5651 95.2453 22.7057 95.1203 22.8828C94.9953 23.0599 94.9328 23.2604 94.9328 23.4844H93.0578C93.0578 23.151 93.1385 22.8281 93.3 22.5156C93.4615 22.2031 93.6958 21.9245 94.0031 21.6797C94.3104 21.4349 94.6776 21.2422 95.1047 21.1016C95.5318 20.9609 96.0109 20.8906 96.5422 20.8906C97.1776 20.8906 97.7401 20.9974 98.2297 21.2109C98.7245 21.4245 99.1125 21.7474 99.3937 22.1797C99.6802 22.6068 99.8234 23.1432 99.8234 23.7891V27.5469C99.8234 27.9323 99.8495 28.2786 99.9016 28.5859C99.9589 28.888 100.04 29.151 100.144 29.375V29.5H98.2141C98.1255 29.2969 98.0552 29.0391 98.0031 28.7266C97.9562 28.4089 97.9328 28.1016 97.9328 27.8047ZM98.2062 24.3594L98.2219 25.5234H96.8703C96.5214 25.5234 96.2141 25.5573 95.9484 25.625C95.6828 25.6875 95.4615 25.7812 95.2844 25.9062C95.1073 26.0312 94.9745 26.1823 94.8859 26.3594C94.7974 26.5365 94.7531 26.737 94.7531 26.9609C94.7531 27.1849 94.8052 27.3906 94.9094 27.5781C95.0135 27.7604 95.1646 27.9036 95.3625 28.0078C95.5656 28.112 95.8104 28.1641 96.0969 28.1641C96.4823 28.1641 96.8182 28.0859 97.1047 27.9297C97.3964 27.7682 97.6255 27.5729 97.7922 27.3438C97.9589 27.1094 98.0474 26.888 98.0578 26.6797L98.6672 27.5156C98.6047 27.7292 98.4979 27.9583 98.3469 28.2031C98.1958 28.4479 97.9979 28.6823 97.7531 28.9062C97.5135 29.125 97.2245 29.3047 96.8859 29.4453C96.5526 29.5859 96.1672 29.6562 95.7297 29.6562C95.1776 29.6562 94.6854 29.5469 94.2531 29.3281C93.8208 29.1042 93.4823 28.8047 93.2375 28.4297C92.9927 28.0495 92.8703 27.6198 92.8703 27.1406C92.8703 26.6927 92.9536 26.2969 93.1203 25.9531C93.2922 25.6042 93.5422 25.3125 93.8703 25.0781C94.2036 24.8438 94.6099 24.6667 95.0891 24.5469C95.5682 24.4219 96.1151 24.3594 96.7297 24.3594H98.2062ZM103.759 22.8516V29.5H101.877V21.0469H103.65L103.759 22.8516ZM103.423 24.9609L102.814 24.9531C102.819 24.3542 102.903 23.8047 103.064 23.3047C103.231 22.8047 103.46 22.375 103.752 22.0156C104.048 21.6562 104.403 21.3802 104.814 21.1875C105.226 20.9896 105.684 20.8906 106.189 20.8906C106.595 20.8906 106.963 20.9479 107.291 21.0625C107.624 21.1719 107.908 21.3516 108.142 21.6016C108.382 21.8516 108.564 22.1771 108.689 22.5781C108.814 22.974 108.877 23.4609 108.877 24.0391V29.5H106.986V24.0312C106.986 23.625 106.926 23.3047 106.806 23.0703C106.692 22.8307 106.522 22.6615 106.298 22.5625C106.08 22.4583 105.806 22.4062 105.478 22.4062C105.155 22.4062 104.866 22.474 104.611 22.6094C104.356 22.7448 104.14 22.9297 103.963 23.1641C103.791 23.3984 103.658 23.6693 103.564 23.9766C103.47 24.2839 103.423 24.612 103.423 24.9609ZM114.773 21.0469V22.4219H110.008V21.0469H114.773ZM111.383 18.9766H113.266V27.1641C113.266 27.4245 113.302 27.625 113.375 27.7656C113.453 27.901 113.56 27.9922 113.695 28.0391C113.831 28.0859 113.99 28.1094 114.172 28.1094C114.302 28.1094 114.427 28.1016 114.547 28.0859C114.667 28.0703 114.763 28.0547 114.836 28.0391L114.844 29.4766C114.688 29.5234 114.505 29.5651 114.297 29.6016C114.094 29.638 113.859 29.6562 113.594 29.6562C113.161 29.6562 112.779 29.5807 112.445 29.4297C112.112 29.2734 111.852 29.0208 111.664 28.6719C111.477 28.3229 111.383 27.8594 111.383 27.2812V18.9766ZM121.092 27.8047V23.7734C121.092 23.4714 121.037 23.2109 120.928 22.9922C120.819 22.7734 120.652 22.6042 120.428 22.4844C120.209 22.3646 119.933 22.3047 119.6 22.3047C119.293 22.3047 119.027 22.3568 118.803 22.4609C118.579 22.5651 118.405 22.7057 118.28 22.8828C118.155 23.0599 118.092 23.2604 118.092 23.4844H116.217C116.217 23.151 116.298 22.8281 116.459 22.5156C116.621 22.2031 116.855 21.9245 117.162 21.6797C117.47 21.4349 117.837 21.2422 118.264 21.1016C118.691 20.9609 119.17 20.8906 119.702 20.8906C120.337 20.8906 120.899 20.9974 121.389 21.2109C121.884 21.4245 122.272 21.7474 122.553 22.1797C122.84 22.6068 122.983 23.1432 122.983 23.7891V27.5469C122.983 27.9323 123.009 28.2786 123.061 28.5859C123.118 28.888 123.199 29.151 123.303 29.375V29.5H121.373C121.285 29.2969 121.215 29.0391 121.162 28.7266C121.116 28.4089 121.092 28.1016 121.092 27.8047ZM121.366 24.3594L121.381 25.5234H120.03C119.681 25.5234 119.373 25.5573 119.108 25.625C118.842 25.6875 118.621 25.7812 118.444 25.9062C118.267 26.0312 118.134 26.1823 118.045 26.3594C117.957 26.5365 117.912 26.737 117.912 26.9609C117.912 27.1849 117.965 27.3906 118.069 27.5781C118.173 27.7604 118.324 27.9036 118.522 28.0078C118.725 28.112 118.97 28.1641 119.256 28.1641C119.642 28.1641 119.978 28.0859 120.264 27.9297C120.556 27.7682 120.785 27.5729 120.952 27.3438C121.118 27.1094 121.207 26.888 121.217 26.6797L121.827 27.5156C121.764 27.7292 121.657 27.9583 121.506 28.2031C121.355 28.4479 121.157 28.6823 120.912 28.9062C120.673 29.125 120.384 29.3047 120.045 29.4453C119.712 29.5859 119.327 29.6562 118.889 29.6562C118.337 29.6562 117.845 29.5469 117.412 29.3281C116.98 29.1042 116.642 28.8047 116.397 28.4297C116.152 28.0495 116.03 27.6198 116.03 27.1406C116.03 26.6927 116.113 26.2969 116.28 25.9531C116.452 25.6042 116.702 25.3125 117.03 25.0781C117.363 24.8438 117.769 24.6667 118.248 24.5469C118.728 24.4219 119.274 24.3594 119.889 24.3594H121.366ZM129.23 21.0469H131.12V30.2344C131.12 30.8125 131.021 31.2995 130.823 31.6953C130.626 32.0964 130.334 32.3984 129.948 32.6016C129.563 32.8099 129.092 32.9141 128.534 32.9141C128.368 32.9141 128.196 32.901 128.019 32.875C127.836 32.8542 127.665 32.8229 127.503 32.7812L127.511 31.3125C127.62 31.3333 127.737 31.349 127.862 31.3594C127.982 31.375 128.097 31.3828 128.206 31.3828C128.43 31.3828 128.618 31.3438 128.769 31.2656C128.92 31.1875 129.034 31.0651 129.112 30.8984C129.191 30.7318 129.23 30.5104 129.23 30.2344V21.0469ZM129.066 18.8281C129.066 18.5417 129.162 18.3047 129.355 18.1172C129.547 17.9245 129.81 17.8281 130.144 17.8281C130.482 17.8281 130.745 17.9245 130.933 18.1172C131.126 18.3047 131.222 18.5417 131.222 18.8281C131.222 19.1094 131.126 19.3438 130.933 19.5312C130.745 19.7188 130.482 19.8125 130.144 19.8125C129.81 19.8125 129.547 19.7188 129.355 19.5312C129.162 19.3438 129.066 19.1094 129.066 18.8281ZM138.017 27.8047V23.7734C138.017 23.4714 137.963 23.2109 137.853 22.9922C137.744 22.7734 137.577 22.6042 137.353 22.4844C137.134 22.3646 136.858 22.3047 136.525 22.3047C136.218 22.3047 135.952 22.3568 135.728 22.4609C135.504 22.5651 135.33 22.7057 135.205 22.8828C135.08 23.0599 135.017 23.2604 135.017 23.4844H133.142C133.142 23.151 133.223 22.8281 133.384 22.5156C133.546 22.2031 133.78 21.9245 134.088 21.6797C134.395 21.4349 134.762 21.2422 135.189 21.1016C135.616 20.9609 136.095 20.8906 136.627 20.8906C137.262 20.8906 137.824 20.9974 138.314 21.2109C138.809 21.4245 139.197 21.7474 139.478 22.1797C139.765 22.6068 139.908 23.1432 139.908 23.7891V27.5469C139.908 27.9323 139.934 28.2786 139.986 28.5859C140.043 28.888 140.124 29.151 140.228 29.375V29.5H138.298C138.21 29.2969 138.14 29.0391 138.088 28.7266C138.041 28.4089 138.017 28.1016 138.017 27.8047ZM138.291 24.3594L138.306 25.5234H136.955C136.606 25.5234 136.298 25.5573 136.033 25.625C135.767 25.6875 135.546 25.7812 135.369 25.9062C135.192 26.0312 135.059 26.1823 134.97 26.3594C134.882 26.5365 134.838 26.737 134.838 26.9609C134.838 27.1849 134.89 27.3906 134.994 27.5781C135.098 27.7604 135.249 27.9036 135.447 28.0078C135.65 28.112 135.895 28.1641 136.181 28.1641C136.567 28.1641 136.903 28.0859 137.189 27.9297C137.481 27.7682 137.71 27.5729 137.877 27.3438C138.043 27.1094 138.132 26.888 138.142 26.6797L138.752 27.5156C138.689 27.7292 138.582 27.9583 138.431 28.2031C138.28 28.4479 138.082 28.6823 137.838 28.9062C137.598 29.125 137.309 29.3047 136.97 29.4453C136.637 29.5859 136.252 29.6562 135.814 29.6562C135.262 29.6562 134.77 29.5469 134.338 29.3281C133.905 29.1042 133.567 28.8047 133.322 28.4297C133.077 28.0495 132.955 27.6198 132.955 27.1406C132.955 26.6927 133.038 26.2969 133.205 25.9531C133.377 25.6042 133.627 25.3125 133.955 25.0781C134.288 24.8438 134.694 24.6667 135.173 24.5469C135.653 24.4219 136.199 24.3594 136.814 24.3594H138.291ZM135.752 19.8516L137.275 17.5H139.4L137.275 19.8516H135.752Z" fill="white"/>
</svg>
