<svg width="123" height="51" viewBox="0 0 123 51" fill="none" xmlns="http://www.w3.org/2000/svg">
<rect x="0.5" y="1" width="122" height="49" stroke="#111111"/>
<path d="M34.7266 24.8359V29C34.5859 29.2083 34.362 29.4427 34.0547 29.7031C33.7474 29.9583 33.3229 30.1823 32.7812 30.375C32.2448 30.5625 31.5521 30.6562 30.7031 30.6562C30.0104 30.6562 29.3724 30.5365 28.7891 30.2969C28.2109 30.0521 27.7083 29.6979 27.2812 29.2344C26.8594 28.7656 26.5312 28.1979 26.2969 27.5312C26.0677 26.8594 25.9531 26.099 25.9531 25.25V24.3672C25.9531 23.5182 26.0521 22.7604 26.25 22.0938C26.4531 21.4271 26.75 20.862 27.1406 20.3984C27.5312 19.9297 28.0104 19.5755 28.5781 19.3359C29.1458 19.0911 29.7969 18.9688 30.5312 18.9688C31.401 18.9688 32.1276 19.1198 32.7109 19.4219C33.2995 19.7188 33.7578 20.1302 34.0859 20.6562C34.4193 21.1823 34.6328 21.7812 34.7266 22.4531H33.2188C33.151 22.0417 33.0156 21.6667 32.8125 21.3281C32.6146 20.9896 32.3307 20.7188 31.9609 20.5156C31.5911 20.3073 31.1146 20.2031 30.5312 20.2031C30.0052 20.2031 29.5495 20.2995 29.1641 20.4922C28.7786 20.6849 28.4609 20.9609 28.2109 21.3203C27.9609 21.6797 27.7734 22.1146 27.6484 22.625C27.5286 23.1354 27.4688 23.7109 27.4688 24.3516V25.25C27.4688 25.9062 27.5443 26.4922 27.6953 27.0078C27.8516 27.5234 28.0729 27.9635 28.3594 28.3281C28.6458 28.6875 28.987 28.9609 29.3828 29.1484C29.7839 29.3359 30.2266 29.4297 30.7109 29.4297C31.2474 29.4297 31.6823 29.3854 32.0156 29.2969C32.349 29.2031 32.6094 29.0938 32.7969 28.9688C32.9844 28.8385 33.1276 28.7161 33.2266 28.6016V26.0547H30.5938V24.8359H34.7266ZM41.9922 29.0547V24.7031C41.9922 24.3698 41.9245 24.0807 41.7891 23.8359C41.6589 23.5859 41.4609 23.3932 41.1953 23.2578C40.9297 23.1224 40.6016 23.0547 40.2109 23.0547C39.8464 23.0547 39.526 23.1172 39.25 23.2422C38.9792 23.3672 38.7656 23.5312 38.6094 23.7344C38.4583 23.9375 38.3828 24.1562 38.3828 24.3906H36.9375C36.9375 24.0885 37.0156 23.7891 37.1719 23.4922C37.3281 23.1953 37.5521 22.9271 37.8438 22.6875C38.1406 22.4427 38.4948 22.25 38.9062 22.1094C39.3229 21.9635 39.7865 21.8906 40.2969 21.8906C40.9115 21.8906 41.4531 21.9948 41.9219 22.2031C42.3958 22.4115 42.7656 22.7266 43.0312 23.1484C43.3021 23.5651 43.4375 24.0885 43.4375 24.7188V28.6562C43.4375 28.9375 43.4609 29.237 43.5078 29.5547C43.5599 29.8724 43.6354 30.1458 43.7344 30.375V30.5H42.2266C42.1536 30.3333 42.0964 30.112 42.0547 29.8359C42.013 29.5547 41.9922 29.2943 41.9922 29.0547ZM42.2422 25.375L42.2578 26.3906H40.7969C40.3854 26.3906 40.0182 26.4245 39.6953 26.4922C39.3724 26.5547 39.1016 26.651 38.8828 26.7812C38.6641 26.9115 38.4974 27.0755 38.3828 27.2734C38.2682 27.4661 38.2109 27.6927 38.2109 27.9531C38.2109 28.2188 38.2708 28.4609 38.3906 28.6797C38.5104 28.8984 38.6901 29.0729 38.9297 29.2031C39.1745 29.3281 39.474 29.3906 39.8281 29.3906C40.2708 29.3906 40.6615 29.2969 41 29.1094C41.3385 28.9219 41.6068 28.6927 41.8047 28.4219C42.0078 28.151 42.1172 27.888 42.1328 27.6328L42.75 28.3281C42.7135 28.5469 42.6146 28.7891 42.4531 29.0547C42.2917 29.3203 42.0755 29.5755 41.8047 29.8203C41.5391 30.0599 41.2214 30.2604 40.8516 30.4219C40.487 30.5781 40.0755 30.6562 39.6172 30.6562C39.0443 30.6562 38.5417 30.5443 38.1094 30.3203C37.6823 30.0964 37.349 29.7969 37.1094 29.4219C36.875 29.0417 36.7578 28.6172 36.7578 28.1484C36.7578 27.6953 36.8464 27.2969 37.0234 26.9531C37.2005 26.6042 37.4557 26.3151 37.7891 26.0859C38.1224 25.8516 38.5234 25.6745 38.9922 25.5547C39.4609 25.4349 39.9844 25.375 40.5625 25.375H42.2422ZM47.1562 23.375V30.5H45.7109V22.0469H47.1172L47.1562 23.375ZM49.7969 22L49.7891 23.3438C49.6693 23.3177 49.5547 23.3021 49.4453 23.2969C49.3411 23.2865 49.2214 23.2812 49.0859 23.2812C48.7526 23.2812 48.4583 23.3333 48.2031 23.4375C47.9479 23.5417 47.7318 23.6875 47.5547 23.875C47.3776 24.0625 47.237 24.2865 47.1328 24.5469C47.0339 24.8021 46.9688 25.0833 46.9375 25.3906L46.5312 25.625C46.5312 25.1146 46.5807 24.6354 46.6797 24.1875C46.7839 23.7396 46.9427 23.3438 47.1562 23C47.3698 22.651 47.6406 22.3802 47.9688 22.1875C48.3021 21.9896 48.6979 21.8906 49.1562 21.8906C49.2604 21.8906 49.3802 21.9036 49.5156 21.9297C49.651 21.9505 49.7448 21.974 49.7969 22ZM55.8047 29.0547V24.7031C55.8047 24.3698 55.737 24.0807 55.6016 23.8359C55.4714 23.5859 55.2734 23.3932 55.0078 23.2578C54.7422 23.1224 54.4141 23.0547 54.0234 23.0547C53.6589 23.0547 53.3385 23.1172 53.0625 23.2422C52.7917 23.3672 52.5781 23.5312 52.4219 23.7344C52.2708 23.9375 52.1953 24.1562 52.1953 24.3906H50.75C50.75 24.0885 50.8281 23.7891 50.9844 23.4922C51.1406 23.1953 51.3646 22.9271 51.6562 22.6875C51.9531 22.4427 52.3073 22.25 52.7188 22.1094C53.1354 21.9635 53.599 21.8906 54.1094 21.8906C54.724 21.8906 55.2656 21.9948 55.7344 22.2031C56.2083 22.4115 56.5781 22.7266 56.8438 23.1484C57.1146 23.5651 57.25 24.0885 57.25 24.7188V28.6562C57.25 28.9375 57.2734 29.237 57.3203 29.5547C57.3724 29.8724 57.4479 30.1458 57.5469 30.375V30.5H56.0391C55.9661 30.3333 55.9089 30.112 55.8672 29.8359C55.8255 29.5547 55.8047 29.2943 55.8047 29.0547ZM56.0547 25.375L56.0703 26.3906H54.6094C54.1979 26.3906 53.8307 26.4245 53.5078 26.4922C53.1849 26.5547 52.9141 26.651 52.6953 26.7812C52.4766 26.9115 52.3099 27.0755 52.1953 27.2734C52.0807 27.4661 52.0234 27.6927 52.0234 27.9531C52.0234 28.2188 52.0833 28.4609 52.2031 28.6797C52.3229 28.8984 52.5026 29.0729 52.7422 29.2031C52.987 29.3281 53.2865 29.3906 53.6406 29.3906C54.0833 29.3906 54.474 29.2969 54.8125 29.1094C55.151 28.9219 55.4193 28.6927 55.6172 28.4219C55.8203 28.151 55.9297 27.888 55.9453 27.6328L56.5625 28.3281C56.526 28.5469 56.4271 28.7891 56.2656 29.0547C56.1042 29.3203 55.888 29.5755 55.6172 29.8203C55.3516 30.0599 55.0339 30.2604 54.6641 30.4219C54.2995 30.5781 53.888 30.6562 53.4297 30.6562C52.8568 30.6562 52.3542 30.5443 51.9219 30.3203C51.4948 30.0964 51.1615 29.7969 50.9219 29.4219C50.6875 29.0417 50.5703 28.6172 50.5703 28.1484C50.5703 27.6953 50.6589 27.2969 50.8359 26.9531C51.013 26.6042 51.2682 26.3151 51.6016 26.0859C51.9349 25.8516 52.3359 25.6745 52.8047 25.5547C53.2734 25.4349 53.7969 25.375 54.375 25.375H56.0547ZM60.9688 23.8516V30.5H59.5234V22.0469H60.8906L60.9688 23.8516ZM60.625 25.9531L60.0234 25.9297C60.0286 25.3516 60.1146 24.8177 60.2812 24.3281C60.4479 23.8333 60.6823 23.4036 60.9844 23.0391C61.2865 22.6745 61.6458 22.3932 62.0625 22.1953C62.4844 21.9922 62.9505 21.8906 63.4609 21.8906C63.8776 21.8906 64.2526 21.9479 64.5859 22.0625C64.9193 22.1719 65.2031 22.349 65.4375 22.5938C65.6771 22.8385 65.8594 23.1562 65.9844 23.5469C66.1094 23.9323 66.1719 24.4036 66.1719 24.9609V30.5H64.7188V24.9453C64.7188 24.5026 64.6536 24.1484 64.5234 23.8828C64.3932 23.612 64.2031 23.4167 63.9531 23.2969C63.7031 23.1719 63.3958 23.1094 63.0312 23.1094C62.6719 23.1094 62.3438 23.1849 62.0469 23.3359C61.7552 23.487 61.5026 23.6953 61.2891 23.9609C61.0807 24.2266 60.9167 24.5312 60.7969 24.875C60.6823 25.2135 60.625 25.5729 60.625 25.9531ZM71.9062 22.0469V23.1562H67.3359V22.0469H71.9062ZM68.8828 19.9922H70.3281V28.4062C70.3281 28.6927 70.3724 28.9089 70.4609 29.0547C70.5495 29.2005 70.6641 29.2969 70.8047 29.3438C70.9453 29.3906 71.0964 29.4141 71.2578 29.4141C71.3776 29.4141 71.5026 29.4036 71.6328 29.3828C71.7682 29.3568 71.8698 29.3359 71.9375 29.3203L71.9453 30.5C71.8307 30.5365 71.6797 30.5703 71.4922 30.6016C71.3099 30.638 71.0885 30.6562 70.8281 30.6562C70.474 30.6562 70.1484 30.5859 69.8516 30.4453C69.5547 30.3047 69.3177 30.0703 69.1406 29.7422C68.9688 29.4089 68.8828 28.9609 68.8828 28.3984V19.9922ZM78.5859 29.0547V24.7031C78.5859 24.3698 78.5182 24.0807 78.3828 23.8359C78.2526 23.5859 78.0547 23.3932 77.7891 23.2578C77.5234 23.1224 77.1953 23.0547 76.8047 23.0547C76.4401 23.0547 76.1198 23.1172 75.8438 23.2422C75.5729 23.3672 75.3594 23.5312 75.2031 23.7344C75.0521 23.9375 74.9766 24.1562 74.9766 24.3906H73.5312C73.5312 24.0885 73.6094 23.7891 73.7656 23.4922C73.9219 23.1953 74.1458 22.9271 74.4375 22.6875C74.7344 22.4427 75.0885 22.25 75.5 22.1094C75.9167 21.9635 76.3802 21.8906 76.8906 21.8906C77.5052 21.8906 78.0469 21.9948 78.5156 22.2031C78.9896 22.4115 79.3594 22.7266 79.625 23.1484C79.8958 23.5651 80.0312 24.0885 80.0312 24.7188V28.6562C80.0312 28.9375 80.0547 29.237 80.1016 29.5547C80.1536 29.8724 80.2292 30.1458 80.3281 30.375V30.5H78.8203C78.7474 30.3333 78.6901 30.112 78.6484 29.8359C78.6068 29.5547 78.5859 29.2943 78.5859 29.0547ZM78.8359 25.375L78.8516 26.3906H77.3906C76.9792 26.3906 76.612 26.4245 76.2891 26.4922C75.9661 26.5547 75.6953 26.651 75.4766 26.7812C75.2578 26.9115 75.0911 27.0755 74.9766 27.2734C74.862 27.4661 74.8047 27.6927 74.8047 27.9531C74.8047 28.2188 74.8646 28.4609 74.9844 28.6797C75.1042 28.8984 75.2839 29.0729 75.5234 29.2031C75.7682 29.3281 76.0677 29.3906 76.4219 29.3906C76.8646 29.3906 77.2552 29.2969 77.5938 29.1094C77.9323 28.9219 78.2005 28.6927 78.3984 28.4219C78.6016 28.151 78.7109 27.888 78.7266 27.6328L79.3438 28.3281C79.3073 28.5469 79.2083 28.7891 79.0469 29.0547C78.8854 29.3203 78.6693 29.5755 78.3984 29.8203C78.1328 30.0599 77.8151 30.2604 77.4453 30.4219C77.0807 30.5781 76.6693 30.6562 76.2109 30.6562C75.638 30.6562 75.1354 30.5443 74.7031 30.3203C74.276 30.0964 73.9427 29.7969 73.7031 29.4219C73.4688 29.0417 73.3516 28.6172 73.3516 28.1484C73.3516 27.6953 73.4401 27.2969 73.6172 26.9531C73.7943 26.6042 74.0495 26.3151 74.3828 26.0859C74.7161 25.8516 75.1172 25.6745 75.5859 25.5547C76.0547 25.4349 76.5781 25.375 77.1562 25.375H78.8359ZM86.3125 22.0469H87.7656V31.5078C87.7656 32.0234 87.6823 32.4609 87.5156 32.8203C87.3542 33.1797 87.1094 33.4505 86.7812 33.6328C86.4583 33.8203 86.0495 33.9141 85.5547 33.9141C85.4245 33.9141 85.2734 33.901 85.1016 33.875C84.9245 33.849 84.776 33.8177 84.6562 33.7812L84.6641 32.6172C84.763 32.638 84.875 32.6536 85 32.6641C85.125 32.6797 85.2344 32.6875 85.3281 32.6875C85.5417 32.6875 85.7214 32.6484 85.8672 32.5703C86.013 32.4922 86.1224 32.3672 86.1953 32.1953C86.2734 32.0234 86.3125 31.7943 86.3125 31.5078V22.0469ZM86.1641 19.8047C86.1641 19.5703 86.237 19.3724 86.3828 19.2109C86.5286 19.0495 86.7396 18.9688 87.0156 18.9688C87.2969 18.9688 87.5104 19.0495 87.6562 19.2109C87.8021 19.3724 87.875 19.5703 87.875 19.8047C87.875 20.0286 87.8021 20.2214 87.6562 20.3828C87.5104 20.5391 87.2969 20.6172 87.0156 20.6172C86.7396 20.6172 86.5286 20.5391 86.3828 20.3828C86.237 20.2214 86.1641 20.0286 86.1641 19.8047ZM95.0859 29.0547V24.7031C95.0859 24.3698 95.0182 24.0807 94.8828 23.8359C94.7526 23.5859 94.5547 23.3932 94.2891 23.2578C94.0234 23.1224 93.6953 23.0547 93.3047 23.0547C92.9401 23.0547 92.6198 23.1172 92.3438 23.2422C92.0729 23.3672 91.8594 23.5312 91.7031 23.7344C91.5521 23.9375 91.4766 24.1562 91.4766 24.3906H90.0312C90.0312 24.0885 90.1094 23.7891 90.2656 23.4922C90.4219 23.1953 90.6458 22.9271 90.9375 22.6875C91.2344 22.4427 91.5885 22.25 92 22.1094C92.4167 21.9635 92.8802 21.8906 93.3906 21.8906C94.0052 21.8906 94.5469 21.9948 95.0156 22.2031C95.4896 22.4115 95.8594 22.7266 96.125 23.1484C96.3958 23.5651 96.5312 24.0885 96.5312 24.7188V28.6562C96.5312 28.9375 96.5547 29.237 96.6016 29.5547C96.6536 29.8724 96.7292 30.1458 96.8281 30.375V30.5H95.3203C95.2474 30.3333 95.1901 30.112 95.1484 29.8359C95.1068 29.5547 95.0859 29.2943 95.0859 29.0547ZM95.3359 25.375L95.3516 26.3906H93.8906C93.4792 26.3906 93.112 26.4245 92.7891 26.4922C92.4661 26.5547 92.1953 26.651 91.9766 26.7812C91.7578 26.9115 91.5911 27.0755 91.4766 27.2734C91.362 27.4661 91.3047 27.6927 91.3047 27.9531C91.3047 28.2188 91.3646 28.4609 91.4844 28.6797C91.6042 28.8984 91.7839 29.0729 92.0234 29.2031C92.2682 29.3281 92.5677 29.3906 92.9219 29.3906C93.3646 29.3906 93.7552 29.2969 94.0938 29.1094C94.4323 28.9219 94.7005 28.6927 94.8984 28.4219C95.1016 28.151 95.2109 27.888 95.2266 27.6328L95.8438 28.3281C95.8073 28.5469 95.7083 28.7891 95.5469 29.0547C95.3854 29.3203 95.1693 29.5755 94.8984 29.8203C94.6328 30.0599 94.3151 30.2604 93.9453 30.4219C93.5807 30.5781 93.1693 30.6562 92.7109 30.6562C92.138 30.6562 91.6354 30.5443 91.2031 30.3203C90.776 30.0964 90.4427 29.7969 90.2031 29.4219C89.9688 29.0417 89.8516 28.6172 89.8516 28.1484C89.8516 27.6953 89.9401 27.2969 90.1172 26.9531C90.2943 26.6042 90.5495 26.3151 90.8828 26.0859C91.2161 25.8516 91.6172 25.6745 92.0859 25.5547C92.5547 25.4349 93.0781 25.375 93.6562 25.375H95.3359ZM92.75 20.7969L94.2656 18.5H96.0078L93.9141 20.7969H92.75Z" fill="#111111"/>
</svg>
